<svg width="71" height="24" viewBox="0 0 71 24" fill="none" xmlns="http://www.w3.org/2000/svg">
<path d="M2.70823 0.635165C2.70823 0.284643 2.42407 0.000488281 2.07355 0.000488281C1.44758 0.000488281 1.19958 0.810735 1.71831 1.16111C2.13982 1.44581 2.70823 1.14382 2.70823 0.635165Z" fill="white" fill-opacity="0.9"/>
<path d="M7.63111 2.0669C7.63111 3.38208 6.16139 4.16288 5.07157 3.42667C4.61988 3.12153 4.34919 2.61201 4.34919 2.0669V1.64145C4.34919 0.735171 5.08387 0.000488281 5.99015 0.000488281C6.89643 0.000488281 7.63111 0.735172 7.63111 1.64145V2.0669Z" fill="white" fill-opacity="0.9"/>
<path d="M12.554 5.39209C12.554 6.70727 11.0843 7.48807 9.99446 6.75186C9.54276 6.44672 9.27207 5.9372 9.27207 5.39209V1.64145C9.27207 0.73517 10.0068 0.000488281 10.913 0.000488281C11.8193 0.000488281 12.554 0.735172 12.554 1.64145V5.39209Z" fill="white" fill-opacity="0.9"/>
<path d="M17.4769 8.71728C17.4769 10.0325 16.0072 10.8133 14.9173 10.0771C14.4656 9.77191 14.195 9.26239 14.195 8.71728V1.64145C14.195 0.735171 14.9296 0.000488281 15.8359 0.000488281C16.7422 0.000488281 17.4769 0.73517 17.4769 1.64145V8.71728Z" fill="white" fill-opacity="0.9"/>
<path d="M22.3998 12.0431C22.3998 13.3582 20.9303 14.139 19.8405 13.403C19.3886 13.0979 19.1178 12.5883 19.1178 12.0431V1.64145C19.1178 0.735172 19.8525 0.000488281 20.7588 0.000488281C21.6651 0.000488281 22.3998 0.735171 22.3998 1.64145V12.0431Z" fill="white" fill-opacity="0.9"/>
<path d="M27.3226 15.3685C27.3226 16.6836 25.8529 17.4644 24.7631 16.7282C24.3114 16.4231 24.0407 15.9136 24.0407 15.3685V1.64145C24.0407 0.735172 24.7754 0.000488281 25.6817 0.000488281C26.588 0.000488281 27.3226 0.735175 27.3226 1.64145V15.3685Z" fill="white" fill-opacity="0.9"/>
<path d="M32.2455 18.6936C32.2455 20.0088 30.7758 20.7896 29.686 20.0534C29.2343 19.7483 28.9636 19.2388 28.9636 18.6937V1.64145C28.9636 0.735171 29.6983 0.000488281 30.6046 0.000488281C31.5108 0.000488281 32.2455 0.735171 32.2455 1.64145V18.6936Z" fill="white" fill-opacity="0.9"/>
<path d="M37.1684 22.0195C37.1684 22.5647 36.8976 23.0743 36.4458 23.3794C35.8909 23.7541 35.164 23.7541 34.6091 23.3794C34.1573 23.0743 33.8865 22.5647 33.8865 22.0195V1.64145C33.8865 0.735172 34.6212 0.000488281 35.5274 0.000488281C36.4337 0.000488281 37.1684 0.735172 37.1684 1.64145V22.0195Z" fill="white" fill-opacity="0.9"/>
<path d="M42.1496 3.09622C42.1496 2.56001 41.8856 2.05816 41.4438 1.75437C40.3633 1.01153 38.8928 1.78505 38.8928 3.09622L38.8928 20.3712C38.8928 21.2706 39.6219 21.9996 40.5212 21.9996C41.4206 21.9996 42.1496 21.2706 42.1496 20.3712L42.1496 3.09622Z" fill="#F04438"/>
<path d="M47.0348 6.45456C47.0348 5.91835 46.7709 5.4165 46.329 5.11271C45.2486 4.36987 43.778 5.14339 43.778 6.45456L43.778 20.3712C43.778 21.2706 44.5071 21.9996 45.4064 21.9996C46.3058 21.9996 47.0348 21.2706 47.0348 20.3712L47.0348 6.45456Z" fill="#F04438"/>
<path d="M51.92 9.81308C51.92 9.27677 51.656 8.77484 51.214 8.47107C50.1335 7.72848 48.6632 8.50203 48.6632 9.81308L48.6632 20.3712C48.6632 21.2706 49.3923 21.9996 50.2916 21.9996C51.191 21.9996 51.92 21.2706 51.92 20.3712L51.92 9.81308Z" fill="#F04438"/>
<path d="M56.8052 13.172C56.8052 12.6358 56.5413 12.134 56.0994 11.8302C55.019 11.0874 53.5484 11.8609 53.5484 13.172L53.5484 20.3712C53.5484 21.2706 54.2775 21.9996 55.1768 21.9996C56.0762 21.9996 56.8052 21.2706 56.8052 20.3712L56.8052 13.172Z" fill="#F04438"/>
<path d="M61.6905 16.5304C61.6905 15.9942 61.4265 15.4923 60.9846 15.1885C59.9042 14.4457 58.4336 15.2192 58.4336 16.5304L58.4336 20.3712C58.4336 21.2706 59.1627 21.9996 60.062 21.9996C60.9614 21.9996 61.6905 21.2706 61.6905 20.3712L61.6905 16.5304Z" fill="#F04438"/>
<path d="M66.5757 19.8887C66.5757 19.3525 66.3117 18.8507 65.8698 18.5469C64.7894 17.804 63.3189 18.5776 63.3189 19.8887L63.3189 20.3712C63.3189 21.2706 64.0479 21.9996 64.9473 21.9996C65.8466 21.9996 66.5757 21.2706 66.5757 20.3712L66.5757 19.8887Z" fill="#F04438"/>
<path d="M68.2041 21.3628C68.2041 21.7145 68.4892 21.9996 68.8409 21.9996C69.4664 21.9996 69.7171 21.1923 69.2017 20.838C68.7791 20.5475 68.2041 20.85 68.2041 21.3628Z" fill="#F04438"/>
</svg>
